{
  "accessors": [
    {
      "bufferView": 2,
      "componentType": 5126,
      "count": 65532,
      "max": [
        -0.012317823246121407,
        0.0034939933102577925,
        -0.28447484970092773
      ],
      "min": [
        -0.31682783365249634,
        -0.3733484148979187,
        -0.4900006353855133
      ],
      "type": "VEC3"
    },
    {
      "bufferView": 2,
      "byteOffset": 786384,
      "componentType": 5126,
      "count": 65532,
      "max": [
        0.9999998807907104,
        1.0,
        0.9999969005584717
      ],
      "min": [
        -0.9999946355819702,
        -1.0,
        -1.0
      ],
      "type": "VEC3"
    },
    {
      "bufferView": 3,
      "componentType": 5126,
      "count": 65532,
      "max": [
        0.9999986290931702,
        0.999999463558197,
        0.9999983906745911,
        1.0
      ],
      "min": [
        -0.9999992847442627,
        -0.9999991655349731,
        -0.9999927282333374,
        -1.0
      ],
      "type": "VEC4"
    },
    {
      "bufferView": 1,
      "componentType": 5126,
      "count": 65532,
      "max": [
        0.9357527494430542,
        0.8346883654594421
      ],
      "min": [
        0.0237125251442194,
        0.005358457565307617
      ],
      "type": "VEC2"
    },
    {
      "bufferView": 1,
      "byteOffset": 524256,
      "componentType": 5126,
      "count": 65532,
      "max": [
        0.9357527494430542,
        0.8346883654594421
      ],
      "min": [
        0.0237125251442194,
        0.005358457565307617
      ],
      "type": "VEC2"
    },
    {
      "bufferView": 1,
      "byteOffset": 1048512,
      "componentType": 5126,
      "count": 65532,
      "max": [
        0.9357527494430542,
        0.8346883654594421
      ],
      "min": [
        0.0237125251442194,
        0.005358457565307617
      ],
      "type": "VEC2"
    },
    {
      "bufferView": 1,
      "byteOffset": 1572768,
      "componentType": 5126,
      "count": 65532,
      "max": [
        0.9357527494430542,
        0.8346883654594421
      ],
      "min": [
        0.0237125251442194,
        0.005358457565307617
      ],
      "type": "VEC2"
    },
    {
      "bufferView": 0,
      "componentType": 5125,
      "count": 370629,
      "type": "SCALAR"
    },
    {
      "bufferView": 2,
      "byteOffset": 1572768,
      "componentType": 5126,
      "count": 65532,
      "max": [
        0.31692373752593994,
        0.05482930690050125,
        -0.07739615440368652
      ],
      "min": [
        -0.30521243810653687,
        -0.4040762782096863,
        -0.42915278673171997
      ],
      "type": "VEC3"
    },
    {
      "bufferView": 2,
      "byteOffset": 2359152,
      "componentType": 5126,
      "count": 65532,
      "max": [
        0.9999935626983643,
        1.0,
        0.9999996423721313
      ],
      "min": [
        -0.9999633431434631,
        -1.0,
        -1.0
      ],
      "type": "VEC3"
    },
    {
      "bufferView": 3,
      "byteOffset": 1048512,
      "componentType": 5126,
      "count": 65532,
      "max": [
        0.999899685382843,
        0.9999991655349731,
        0.9999889731407166,
        1.0
      ],
      "min": [
        -0.9999998211860657,
        -0.9999979138374329,
        -0.9999990463256836,
        -1.0
      ],
      "type": "VEC4"
    },
    {
      "bufferView": 1,
      "byteOffset": 2097024,
      "componentType": 5126,
      "count": 65532,
      "max": [
        0.9971110224723816,
        0.9976206421852112
      ],
      "min": [
        4.451820132089779e-05,
        0.0031365156173706055
      ],
      "type": "VEC2"
    },
    {
      "bufferView": 1,
      "byteOffset": 2621280,
      "componentType": 5126,
      "count": 65532,
      "max": [
        0.9971110224723816,
        0.9976206421852112
      ],
      "min": [
        4.451820132089779e-05,
        0.0031365156173706055
      ],
      "type": "VEC2"
    },
    {
      "bufferView": 1,
      "byteOffset": 3145536,
      "componentType": 5126,
      "count": 65532,
      "max": [
        0.9971110224723816,
        0.9976206421852112
      ],
      "min": [
        4.451820132089779e-05,
        0.0031365156173706055
      ],
      "type": "VEC2"
    },
    {
      "bufferView": 1,
      "byteOffset": 3669792,
      "componentType": 5126,
      "count": 65532,
      "max": [
        0.9971110224723816,
        0.9976206421852112
      ],
      "min": [
        4.451820132089779e-05,
        0.0031365156173706055
      ],
      "type": "VEC2"
    },
    {
      "bufferView": 0,
      "byteOffset": 1482516,
      "componentType": 5125,
      "count": 346224,
      "type": "SCALAR"
    },
    {
      "bufferView": 2,
      "byteOffset": 3145536,
      "componentType": 5126,
      "count": 65532,
      "max": [
        0.31582269072532654,
        0.015112154185771942,
        -0.15660063922405243
      ],
      "min": [
        -0.2920629680156708,
        -0.4051057696342468,
        -0.37472230195999146
      ],
      "type": "VEC3"
    },
    {
      "bufferView": 2,
      "byteOffset": 3931920,
      "componentType": 5126,
      "count": 65532,
      "max": [
        0.9999984502792358,
        0.9999997615814209,
        0.9999996423721313
      ],
      "min": [
        -0.9999938011169434,
        -1.0,
        -0.999995768070221
      ],
      "type": "VEC3"
    },
    {
      "bufferView": 3,
      "byteOffset": 2097024,
      "componentType": 5126,
      "count": 65532,
      "max": [
        0.9999951720237732,
        0.9999991059303284,
        0.9999585747718811,
        1.0
      ],
      "min": [
        -0.9999254941940308,
        -0.9999972581863403,
        -0.9999969601631165,
        -1.0
      ],
      "type": "VEC4"
    },
    {
      "bufferView": 1,
      "byteOffset": 4194048,
      "componentType": 5126,
      "count": 65532,
      "max": [
        0.9982829093933105,
        0.9980022311210632
      ],
      "min": [
        0.0013046266976743937,
        6.973743438720703e-06
      ],
      "type": "VEC2"
    },
    {
      "bufferView": 1,
      "byteOffset": 4718304,
      "componentType": 5126,
      "count": 65532,
      "max": [
        0.9982829093933105,
        0.9980022311210632
      ],
      "min": [
        0.0013046266976743937,
        6.973743438720703e-06
      ],
      "type": "VEC2"
    },
    {
      "bufferView": 1,
      "byteOffset": 5242560,
      "componentType": 5126,
      "count": 65532,
      "max": [
        0.9982829093933105,
        0.9980022311210632
      ],
      "min": [
        0.0013046266976743937,
        6.973743438720703e-06
      ],
      "type": "VEC2"
    },
    {
      "bufferView": 1,
      "byteOffset": 5766816,
      "componentType": 5126,
      "count": 65532,
      "max": [
        0.9982829093933105,
        0.9980022311210632
      ],
      "min": [
        0.0013046266976743937,
        6.973743438720703e-06
      ],
      "type": "VEC2"
    },
    {
      "bufferView": 0,
      "byteOffset": 2867412,
      "componentType": 5125,
      "count": 334167,
      "type": "SCALAR"
    },
    {
      "bufferView": 2,
      "byteOffset": 4718304,
      "componentType": 5126,
      "count": 65532,
      "max": [
        0.31582415103912354,
        0.1287413239479065,
        -0.018831990659236908
      ],
      "min": [
        -0.27178674936294556,
        -0.40435728430747986,
        -0.3338407576084137
      ],
      "type": "VEC3"
    },
    {
      "bufferView": 2,
      "byteOffset": 5504688,
      "componentType": 5126,
      "count": 65532,
      "max": [
        0.9999993443489075,
        1.0,
        0.9999992251396179
      ],
      "min": [
        -0.9999903440475464,
        -1.0,
        -0.9999855160713196
      ],
      "type": "VEC3"
    },
    {
      "bufferView": 3,
      "byteOffset": 3145536,
      "componentType": 5126,
      "count": 65532,
      "max": [
        0.9999998211860657,
        1.0,
        0.9999963045120239,
        -1.0
      ],
      "min": [
        -0.9999924302101135,
        -0.9999969005584717,
        -0.9999966621398926,
        -1.0
      ],
      "type": "VEC4"
    },
    {
      "bufferView": 1,
      "byteOffset": 6291072,
      "componentType": 5126,
      "count": 65532,
      "max": [
        0.9803476333618164,
        0.9978162050247192
      ],
      "min": [
        0.00026524523855187,
        0.0018303990364074707
      ],
      "type": "VEC2"
    },
    {
      "bufferView": 1,
      "byteOffset": 6815328,
      "componentType": 5126,
      "count": 65532,
      "max": [
        0.9803476333618164,
        0.9978162050247192
      ],
      "min": [
        0.00026524523855187,
        0.0018303990364074707
      ],
      "type": "VEC2"
    },
    {
      "bufferView": 1,
      "byteOffset": 7339584,
      "componentType": 5126,
      "count": 65532,
      "max": [
        0.9803476333618164,
        0.9978162050247192
      ],
      "min": [
        0.00026524523855187,
        0.0018303990364074707
      ],
      "type": "VEC2"
    },
    {
      "bufferView": 1,
      "byteOffset": 7863840,
      "componentType": 5126,
      "count": 65532,
      "max": [
        0.9803476333618164,
        0.9978162050247192
      ],
      "min": [
        0.00026524523855187,
        0.0018303990364074707
      ],
      "type": "VEC2"
    },
    {
      "bufferView": 0,
      "byteOffset": 4204080,
      "componentType": 5125,
      "count": 340209,
      "type": "SCALAR"
    },
    {
      "bufferView": 2,
      "byteOffset": 6291072,
      "componentType": 5126,
      "count": 65532,
      "max": [
        0.28136736154556274,
        0.14231453835964203,
        -0.07971332967281342
      ],
      "min": [
        -0.19476422667503357,
        -0.4048272371292114,
        -0.2839745283126831
      ],
      "type": "VEC3"
    },
    {
      "bufferView": 2,
      "byteOffset": 7077456,
      "componentType": 5126,
      "count": 65532,
      "max": [
        0.9999994039535522,
        0.9999999403953552,
        0.9999868273735046
      ],
      "min": [
        -0.9999945163726807,
        -1.0,
        -0.9999788403511047
      ],
      "type": "VEC3"
    },
    {
      "bufferView": 3,
      "byteOffset": 4194048,
      "componentType": 5126,
      "count": 65532,
      "max": [
        0.9999998211860657,
        0.999999463558197,
        0.9999959468841553,
        1.0
      ],
      "min": [
        -0.9999829530715942,
        -0.9999973773956299,
        -0.9999950528144836,
        -1.0
      ],
      "type": "VEC4"
    },
    {
      "bufferView": 1,
      "byteOffset": 8388096,
      "componentType": 5126,
      "count": 65532,
      "max": [
        0.9980089068412781,
        0.997696042060852
      ],
      "min": [
        3.307643055450171e-05,
        0.0010738372802734375
      ],
      "type": "VEC2"
    },
    {
      "bufferView": 1,
      "byteOffset": 8912352,
      "componentType": 5126,
      "count": 65532,
      "max": [
        0.9980089068412781,
        0.997696042060852
      ],
      "min": [
        3.307643055450171e-05,
        0.0010738372802734375
      ],
      "type": "VEC2"
    },
    {
      "bufferView": 1,
      "byteOffset": 9436608,
      "componentType": 5126,
      "count": 65532,
      "max": [
        0.9980089068412781,
        0.997696042060852
      ],
      "min": [
        3.307643055450171e-05,
        0.0010738372802734375
      ],
      "type": "VEC2"
    },
    {
      "bufferView": 1,
      "byteOffset": 9960864,
      "componentType": 5126,
      "count": 65532,
      "max": [
        0.9980089068412781,
        0.997696042060852
      ],
      "min": [
        3.307643055450171e-05,
        0.0010738372802734375
      ],
      "type": "VEC2"
    },
    {
      "bufferView": 0,
      "byteOffset": 5564916,
      "componentType": 5125,
      "count": 343881,
      "type": "SCALAR"
    },
    {
      "bufferView": 2,
      "byteOffset": 7863840,
      "componentType": 5126,
      "count": 65532,
      "max": [
        0.29760947823524475,
        0.40358975529670715,
        0.02697044238448143
      ],
      "min": [
        -0.18495047092437744,
        -0.4066694974899292,
        -0.22394582629203796
      ],
      "type": "VEC3"
    },
    {
      "bufferView": 2,
      "byteOffset": 8650224,
      "componentType": 5126,
      "count": 65532,
      "max": [
        0.9999994039535522,
        0.9999999403953552,
        0.9999989867210388
      ],
      "min": [
        -0.9999516010284424,
        -1.0,
        -0.999998927116394
      ],
      "type": "VEC3"
    },
    {
      "bufferView": 3,
      "byteOffset": 5242560,
      "componentType": 5126,
      "count": 65532,
      "max": [
        0.9999876022338867,
        0.999992311000824,
        0.9999226927757263,
        -1.0
      ],
      "min": [
        -1.0,
        -0.9999995231628418,
        -0.999997615814209,
        -1.0
      ],
      "type": "VEC4"
    },
    {
      "bufferView": 1,
      "byteOffset": 10485120,
      "componentType": 5126,
      "count": 65532,
      "max": [
        0.9980288147926331,
        0.9976366758346558
      ],
      "min": [
        0.0023048280272632837,
        0.00034683942794799805
      ],
      "type": "VEC2"
    },
    {
      "bufferView": 1,
      "byteOffset": 11009376,
      "componentType": 5126,
      "count": 65532,
      "max": [
        0.9980288147926331,
        0.9976366758346558
      ],
      "min": [
        0.0023048280272632837,
        0.00034683942794799805
      ],
      "type": "VEC2"
    },
    {
      "bufferView": 1,
      "byteOffset": 11533632,
      "componentType": 5126,
      "count": 65532,
      "max": [
        0.9980288147926331,
        0.9976366758346558
      ],
      "min": [
        0.0023048280272632837,
        0.00034683942794799805
      ],
      "type": "VEC2"
    },
    {
      "bufferView": 1,
      "byteOffset": 12057888,
      "componentType": 5126,
      "count": 65532,
      "max": [
        0.9980288147926331,
        0.9976366758346558
      ],
      "min": [
        0.0023048280272632837,
        0.00034683942794799805
      ],
      "type": "VEC2"
    },
    {
      "bufferView": 0,
      "byteOffset": 6940440,
      "componentType": 5125,
      "count": 342651,
      "type": "SCALAR"
    },
    {
      "bufferView": 2,
      "byteOffset": 9436608,
      "componentType": 5126,
      "count": 65532,
      "max": [
        0.29760947823524475,
        0.40335214138031006,
        0.03667466714978218
      ],
      "min": [
        -0.16493384540081024,
        -0.4059959650039673,
        -0.15584193170070648
      ],
      "type": "VEC3"
    },
    {
      "bufferView": 2,
      "byteOffset": 10222992,
      "componentType": 5126,
      "count": 65532,
      "max": [
        0.9999995231628418,
        0.9999974370002747,
        0.9999989867210388
      ],
      "min": [
        -0.9999922513961792,
        -0.9999997019767761,
        -0.9999844431877136
      ],
      "type": "VEC3"
    },
    {
      "bufferView": 3,
      "byteOffset": 6291072,
      "componentType": 5126,
      "count": 65532,
      "max": [
        0.9999672770500183,
        0.9999991655349731,
        0.9997718334197998,
        1.0
      ],
      "min": [
        -0.9999866485595703,
        -0.9999887347221375,
        -0.9999997615814209,
        -1.0
      ],
      "type": "VEC4"
    },
    {
      "bufferView": 1,
      "byteOffset": 12582144,
      "componentType": 5126,
      "count": 65532,
      "max": [
        0.9989871382713318,
        0.9988474249839783
      ],
      "min": [
        0.00036409820313565433,
        0.001198112964630127
      ],
      "type": "VEC2"
    },
    {
      "bufferView": 1,
      "byteOffset": 13106400,
      "componentType": 5126,
      "count": 65532,
      "max": [
        0.9989871382713318,
        0.9988474249839783
      ],
      "min": [
        0.00036409820313565433,
        0.001198112964630127
      ],
      "type": "VEC2"
    },
    {
      "bufferView": 1,
      "byteOffset": 13630656,
      "componentType": 5126,
      "count": 65532,
      "max": [
        0.9989871382713318,
        0.9988474249839783
      ],
      "min": [
        0.00036409820313565433,
        0.001198112964630127
      ],
      "type": "VEC2"
    },
    {
      "bufferView": 1,
      "byteOffset": 14154912,
      "componentType": 5126,
      "count": 65532,
      "max": [
        0.9989871382713318,
        0.9988474249839783
      ],
      "min": [
        0.00036409820313565433,
        0.001198112964630127
      ],
      "type": "VEC2"
    },
    {
      "bufferView": 0,
      "byteOffset": 8311044,
      "componentType": 5125,
      "count": 346827,
      "type": "SCALAR"
    },
    {
      "bufferView": 2,
      "byteOffset": 11009376,
      "componentType": 5126,
      "count": 65532,
      "max": [
        0.29760921001434326,
        0.3688008487224579,
        0.23602765798568726
      ],
      "min": [
        -0.1587783545255661,
        -0.4079422056674957,
        -0.11019681394100189
      ],
      "type": "VEC3"
    },
    {
      "bufferView": 2,
      "byteOffset": 11795760,
      "componentType": 5126,
      "count": 65532,
      "max": [
        0.9999995231628418,
        0.9999991655349731,
        0.9998738169670105
      ],
      "min": [
        -0.9999954700469971,
        -1.0,
        -1.0
      ],
      "type": "VEC3"
    },
    {
      "bufferView": 3,
      "byteOffset": 7339584,
      "componentType": 5126,
      "count": 65532,
      "max": [
        0.9999876022338867,
        0.9999997615814209,
        0.9999909996986389,
        1.0
      ],
      "min": [
        -0.9999927878379822,
        -0.9999896883964539,
        -0.9999996423721313,
        -1.0
      ],
      "type": "VEC4"
    },
    {
      "bufferView": 1,
      "byteOffset": 14679168,
      "componentType": 5126,
      "count": 65532,
      "max": [
        0.9990373253822327,
        0.9999717473983765
      ],
      "min": [
        0.000384790007956326,
        3.063678741455078e-05
      ],
      "type": "VEC2"
    },
    {
      "bufferView": 1,
      "byteOffset": 15203424,
      "componentType": 5126,
      "count": 65532,
      "max": [
        0.9990373253822327,
        0.9999717473983765
      ],
      "min": [
        0.000384790007956326,
        3.063678741455078e-05
      ],
      "type": "VEC2"
    },
    {
      "bufferView": 1,
      "byteOffset": 15727680,
      "componentType": 5126,
      "count": 65532,
      "max": [
        0.9990373253822327,
        0.9999717473983765
      ],
      "min": [
        0.000384790007956326,
        3.063678741455078e-05
      ],
      "type": "VEC2"
    },
    {
      "bufferView": 1,
      "byteOffset": 16251936,
      "componentType": 5126,
      "count": 65532,
      "max": [
        0.9990373253822327,
        0.9999717473983765
      ],
      "min": [
        0.000384790007956326,
        3.063678741455078e-05
      ],
      "type": "VEC2"
    },
    {
      "bufferView": 0,
      "byteOffset": 9698352,
      "componentType": 5125,
      "count": 340428,
      "type": "SCALAR"
    },
    {
      "bufferView": 2,
      "byteOffset": 12582144,
      "componentType": 5126,
      "count": 65532,
      "max": [
        0.3002958297729492,
        0.30780482292175293,
        0.3905988931655884
      ],
      "min": [
        -0.14959338307380676,
        -0.40728795528411865,
        -0.050372350960969925
      ],
      "type": "VEC3"
    },
    {
      "bufferView": 2,
      "byteOffset": 13368528,
      "componentType": 5126,
      "count": 65532,
      "max": [
        0.9999995231628418,
        0.9999978542327881,
        0.9999403357505798
      ],
      "min": [
        -0.999992847442627,
        -1.0,
        -0.9999982118606567
      ],
      "type": "VEC3"
    },
    {
      "bufferView": 3,
      "byteOffset": 8388096,
      "componentType": 5126,
      "count": 65532,
      "max": [
        0.9999918341636658,
        0.9999998807907104,
        1.0,
        1.0
      ],
      "min": [
        -0.9999832510948181,
        -0.99997478723526,
        -0.9998939633369446,
        -1.0
      ],
      "type": "VEC4"
    },
    {
      "bufferView": 1,
      "byteOffset": 16776192,
      "componentType": 5126,
      "count": 65532,
      "max": [
        1.0,
        0.9900228381156921
      ],
      "min": [
        0.000989439315162599,
        2.4974346160888672e-05
      ],
      "type": "VEC2"
    },
    {
      "bufferView": 1,
      "byteOffset": 17300448,
      "componentType": 5126,
      "count": 65532,
      "max": [
        1.0,
        0.9900228381156921
      ],
      "min": [
        0.000989439315162599,
        2.4974346160888672e-05
      ],
      "type": "VEC2"
    },
    {
      "bufferView": 1,
      "byteOffset": 17824704,
      "componentType": 5126,
      "count": 65532,
      "max": [
        1.0,
        0.9900228381156921
      ],
      "min": [
        0.000989439315162599,
        2.4974346160888672e-05
      ],
      "type": "VEC2"
    },
    {
      "bufferView": 1,
      "byteOffset": 18348960,
      "componentType": 5126,
      "count": 65532,
      "max": [
        1.0,
        0.9900228381156921
      ],
      "min": [
        0.000989439315162599,
        2.4974346160888672e-05
      ],
      "type": "VEC2"
    },
    {
      "bufferView": 0,
      "byteOffset": 11060064,
      "componentType": 5125,
      "count": 345696,
      "type": "SCALAR"
    },
    {
      "bufferView": 2,
      "byteOffset": 14154912,
      "componentType": 5126,
      "count": 65532,
      "max": [
        0.3002958297729492,
        0.40768134593963623,
        0.44304990768432617
      ],
      "min": [
        -0.11264955997467041,
        -0.40650954842567444,
        0.07400032877922058
      ],
      "type": "VEC3"
    },
    {
      "bufferView": 2,
      "byteOffset": 14941296,
      "componentType": 5126,
      "count": 65532,
      "max": [
        0.9999994039535522,
        1.0,
        1.0
      ],
      "min": [
        -0.9999992251396179,
        -1.0,
        -0.9999983310699463
      ],
      "type": "VEC3"
    },
    {
      "bufferView": 3,
      "byteOffset": 9436608,
      "componentType": 5126,
      "count": 65532,
      "max": [
        0.999994695186615,
        0.999999463558197,
        0.9999427199363708,
        1.0
      ],
      "min": [
        -0.9999796152114868,
        -0.9999987483024597,
        -0.999969482421875,
        -1.0
      ],
      "type": "VEC4"
    },
    {
      "bufferView": 1,
      "byteOffset": 18873216,
      "componentType": 5126,
      "count": 65532,
      "max": [
        0.9989210367202759,
        1.0
      ],
      "min": [
        0.0,
        0.00030517578125
      ],
      "type": "VEC2"
    },
    {
      "bufferView": 1,
      "byteOffset": 19397472,
      "componentType": 5126,
      "count": 65532,
      "max": [
        0.9989210367202759,
        1.0
      ],
      "min": [
        0.0,
        0.00030517578125
      ],
      "type": "VEC2"
    },
    {
      "bufferView": 1,
      "byteOffset": 19921728,
      "componentType": 5126,
      "count": 65532,
      "max": [
        0.9989210367202759,
        1.0
      ],
      "min": [
        0.0,
        0.00030517578125
      ],
      "type": "VEC2"
    },
    {
      "bufferView": 1,
      "byteOffset": 20445984,
      "componentType": 5126,
      "count": 65532,
      "max": [
        0.9989210367202759,
        1.0
      ],
      "min": [
        0.0,
        0.00030517578125
      ],
      "type": "VEC2"
    },
    {
      "bufferView": 0,
      "byteOffset": 12442848,
      "componentType": 5125,
      "count": 351288,
      "type": "SCALAR"
    },
    {
      "bufferView": 2,
      "byteOffset": 15727680,
      "componentType": 5126,
      "count": 65532,
      "max": [
        0.30253905057907104,
        0.2091493010520935,
        0.48752129077911377
      ],
      "min": [
        -0.10065582394599915,
        -0.40296152234077454,
        0.2410496026277542
      ],
      "type": "VEC3"
    },
    {
      "bufferView": 2,
      "byteOffset": 16514064,
      "componentType": 5126,
      "count": 65532,
      "max": [
        0.9999969005584717,
        1.0,
        0.9999945163726807
      ],
      "min": [
        -0.9999984502792358,
        -1.0,
        -0.9999955892562866
      ],
      "type": "VEC3"
    },
    {
      "bufferView": 3,
      "byteOffset": 10485120,
      "componentType": 5126,
      "count": 65532,
      "max": [
        0.9999985098838806,
        0.9999949336051941,
        0.9999906420707703,
        -1.0
      ],
      "min": [
        -0.9999821186065674,
        -0.9999922513961792,
        -0.9999999403953552,
        -1.0
      ],
      "type": "VEC4"
    },
    {
      "bufferView": 1,
      "byteOffset": 20970240,
      "componentType": 5126,
      "count": 65532,
      "max": [
        0.9926512241363525,
        0.9986926317214966
      ],
      "min": [
        0.003264531958848238,
        0.0029650330543518066
      ],
      "type": "VEC2"
    },
    {
      "bufferView": 1,
      "byteOffset": 21494496,
      "componentType": 5126,
      "count": 65532,
      "max": [
        0.9926512241363525,
        0.9986926317214966
      ],
      "min": [
        0.003264531958848238,
        0.0029650330543518066
      ],
      "type": "VEC2"
    },
    {
      "bufferView": 1,
      "byteOffset": 22018752,
      "componentType": 5126,
      "count": 65532,
      "max": [
        0.9926512241363525,
        0.9986926317214966
      ],
      "min": [
        0.003264531958848238,
        0.0029650330543518066
      ],
      "type": "VEC2"
    },
    {
      "bufferView": 1,
      "byteOffset": 22543008,
      "componentType": 5126,
      "count": 65532,
      "max": [
        0.9926512241363525,
        0.9986926317214966
      ],
      "min": [
        0.003264531958848238,
        0.0029650330543518066
      ],
      "type": "VEC2"
    },
    {
      "bufferView": 0,
      "byteOffset": 13848000,
      "componentType": 5125,
      "count": 351414,
      "type": "SCALAR"
    },
    {
      "bufferView": 2,
      "byteOffset": 17300448,
      "componentType": 5126,
      "count": 65532,
      "max": [
        0.3009355366230011,
        0.02396605722606182,
        0.48855090141296387
      ],
      "min": [
        -0.08414772152900696,
        -0.40393292903900146,
        0.30466651916503906
      ],
      "type": "VEC3"
    },
    {
      "bufferView": 2,
      "byteOffset": 18086832,
      "componentType": 5126,
      "count": 65532,
      "max": [
        0.999996542930603,
        1.0,
        1.0
      ],
      "min": [
        -0.9999861121177673,
        -1.0,
        -0.9999992251396179
      ],
      "type": "VEC3"
    },
    {
      "bufferView": 3,
      "byteOffset": 11533632,
      "componentType": 5126,
      "count": 65532,
      "max": [
        0.9999963641166687,
        0.9999953508377075,
        0.9999698400497437,
        1.0
      ],
      "min": [
        -0.9999989867210388,
        -0.999997615814209,
        -0.9999976754188538,
        -1.0
      ],
      "type": "VEC4"
    },
    {
      "bufferView": 1,
      "byteOffset": 23067264,
      "componentType": 5126,
      "count": 65532,
      "max": [
        0.9963477849960327,
        0.9878139495849609
      ],
      "min": [
        0.0012151148403063416,
        3.7550926208496094e-06
      ],
      "type": "VEC2"
    },
    {
      "bufferView": 1,
      "byteOffset": 23591520,
      "componentType": 5126,
      "count": 65532,
      "max": [
        0.9963477849960327,
        0.9878139495849609
      ],
      "min": [
        0.0012151148403063416,
        3.7550926208496094e-06
      ],
      "type": "VEC2"
    },
    {
      "bufferView": 1,
      "byteOffset": 24115776,
      "componentType": 5126,
      "count": 65532,
      "max": [
        0.9963477849960327,
        0.9878139495849609
      ],
      "min": [
        0.0012151148403063416,
        3.7550926208496094e-06
      ],
      "type": "VEC2"
    },
    {
      "bufferView": 1,
      "byteOffset": 24640032,
      "componentType": 5126,
      "count": 65532,
      "max": [
        0.9963477849960327,
        0.9878139495849609
      ],
      "min": [
        0.0012151148403063416,
        3.7550926208496094e-06
      ],
      "type": "VEC2"
    },
    {
      "bufferView": 0,
      "byteOffset": 15253656,
      "componentType": 5125,
      "count": 340323,
      "type": "SCALAR"
    },
    {
      "bufferView": 2,
      "byteOffset": 18873216,
      "componentType": 5126,
      "count": 65532,
      "max": [
        0.30078771710395813,
        0.13391810655593872,
        0.4897792339324951
      ],
      "min": [
        -0.07185473293066025,
        -0.40296563506126404,
        0.34319815039634705
      ],
      "type": "VEC3"
    },
    {
      "bufferView": 2,
      "byteOffset": 19659600,
      "componentType": 5126,
      "count": 65532,
      "max": [
        0.9999897480010986,
        1.0,
        1.0
      ],
      "min": [
        -0.9999802112579346,
        -1.0,
        -1.0
      ],
      "type": "VEC3"
    },
    {
      "bufferView": 3,
      "byteOffset": 12582144,
      "componentType": 5126,
      "count": 65532,
      "max": [
        0.9999624490737915,
        0.9999985098838806,
        0.9999932050704956,
        1.0
      ],
      "min": [
        -0.9999974966049194,
        -0.9999998211860657,
        -0.9999995231628418,
        -1.0
      ],
      "type": "VEC4"
    },
    {
      "bufferView": 1,
      "byteOffset": 25164288,
      "componentType": 5126,
      "count": 65532,
      "max": [
        0.9953588843345642,
        0.9867681860923767
      ],
      "min": [
        0.0014218681026250124,
        0.0023783445358276367
      ],
      "type": "VEC2"
    },
    {
      "bufferView": 1,
      "byteOffset": 25688544,
      "componentType": 5126,
      "count": 65532,
      "max": [
        0.9953588843345642,
        0.9867681860923767
      ],
      "min": [
        0.0014218681026250124,
        0.0023783445358276367
      ],
      "type": "VEC2"
    },
    {
      "bufferView": 1,
      "byteOffset": 26212800,
      "componentType": 5126,
      "count": 65532,
      "max": [
        0.9953588843345642,
        0.9867681860923767
      ],
      "min": [
        0.0014218681026250124,
        0.0023783445358276367
      ],
      "type": "VEC2"
    },
    {
      "bufferView": 1,
      "byteOffset": 26737056,
      "componentType": 5126,
      "count": 65532,
      "max": [
        0.9953588843345642,
        0.9867681860923767
      ],
      "min": [
        0.0014218681026250124,
        0.0023783445358276367
      ],
      "type": "VEC2"
    },
    {
      "bufferView": 0,
      "byteOffset": 16614948,
      "componentType": 5125,
      "count": 347787,
      "type": "SCALAR"
    },
    {
      "bufferView": 2,
      "byteOffset": 20445984,
      "componentType": 5126,
      "count": 65532,
      "max": [
        0.30001944303512573,
        0.2105673998594284,
        0.3903213441371918
      ],
      "min": [
        -0.11658847332000732,
        -0.4071911871433258,
        0.08046901226043701
      ],
      "type": "VEC3"
    },
    {
      "bufferView": 2,
      "byteOffset": 21232368,
      "componentType": 5126,
      "count": 65532,
      "max": [
        0.9999992847442627,
        0.9999990463256836,
        0.9999939203262329
      ],
      "min": [
        -0.9999456405639648,
        -1.0,
        -0.9999992251396179
      ],
      "type": "VEC3"
    },
    {
      "bufferView": 3,
      "byteOffset": 13630656,
      "componentType": 5126,
      "count": 65532,
      "max": [
        0.9999974966049194,
        0.9999988675117493,
        0.999991238117218,
        1.0
      ],
      "min": [
        -0.9999984502792358,
        -0.9999971389770508,
        -0.9999951720237732,
        -1.0
      ],
      "type": "VEC4"
    },
    {
      "bufferView": 1,
      "byteOffset": 27261312,
      "componentType": 5126,
      "count": 65532,
      "max": [
        0.9999606013298035,
        0.9980138540267944
      ],
      "min": [
        0.00011812740558525547,
        0.0
      ],
      "type": "VEC2"
    },
    {
      "bufferView": 1,
      "byteOffset": 27785568,
      "componentType": 5126,
      "count": 65532,
      "max": [
        0.9999606013298035,
        0.9980138540267944
      ],
      "min": [
        0.00011812740558525547,
        0.0
      ],
      "type": "VEC2"
    },
    {
      "bufferView": 1,
      "byteOffset": 28309824,
      "componentType": 5126,
      "count": 65532,
      "max": [
        0.9999606013298035,
        0.9980138540267944
      ],
      "min": [
        0.00011812740558525547,
        0.0
      ],
      "type": "VEC2"
    },
    {
      "bufferView": 1,
      "byteOffset": 28834080,
      "componentType": 5126,
      "count": 65532,
      "max": [
        0.9999606013298035,
        0.9980138540267944
      ],
      "min": [
        0.00011812740558525547,
        0.0
      ],
      "type": "VEC2"
    },
    {
      "bufferView": 0,
      "byteOffset": 18006096,
      "componentType": 5125,
      "count": 327279,
      "type": "SCALAR"
    },
    {
      "bufferView": 2,
      "byteOffset": 22018752,
      "componentType": 5126,
      "count": 65532,
      "max": [
        0.2818981111049652,
        0.408023476600647,
        0.17699173092842102
      ],
      "min": [
        -0.1286548674106598,
        -0.40732842683792114,
        -0.01602753810584545
      ],
      "type": "VEC3"
    },
    {
      "bufferView": 2,
      "byteOffset": 22805136,
      "componentType": 5126,
      "count": 65532,
      "max": [
        0.9999986886978149,
        0.9999949336051941,
        0.9999757409095764
      ],
      "min": [
        -0.9999895095825195,
        -1.0,
        -0.9999995827674866
      ],
      "type": "VEC3"
    },
    {
      "bufferView": 3,
      "byteOffset": 14679168,
      "componentType": 5126,
      "count": 65532,
      "max": [
        0.9999834299087524,
        0.9999998807907104,
        0.9999976754188538,
        1.0
      ],
      "min": [
        -0.9999428987503052,
        -0.9999998807907104,
        -0.9999932050704956,
        -1.0
      ],
      "type": "VEC4"
    },
    {
      "bufferView": 1,
      "byteOffset": 29358336,
      "componentType": 5126,
      "count": 65532,
      "max": [
        0.9983774423599243,
        0.9996296167373657
      ],
      "min": [
        0.0011679475428536534,
        0.0001761913299560547
      ],
      "type": "VEC2"
    },
    {
      "bufferView": 1,
      "byteOffset": 29882592,
      "componentType": 5126,
      "count": 65532,
      "max": [
        0.9983774423599243,
        0.9996296167373657
      ],
      "min": [
        0.0011679475428536534,
        0.0001761913299560547
      ],
      "type": "VEC2"
    },
    {
      "bufferView": 1,
      "byteOffset": 30406848,
      "componentType": 5126,
      "count": 65532,
      "max": [
        0.9983774423599243,
        0.9996296167373657
      ],
      "min": [
        0.0011679475428536534,
        0.0001761913299560547
      ],
      "type": "VEC2"
    },
    {
      "bufferView": 1,
      "byteOffset": 30931104,
      "componentType": 5126,
      "count": 65532,
      "max": [
        0.9983774423599243,
        0.9996296167373657
      ],
      "min": [
        0.0011679475428536534,
        0.0001761913299560547
      ],
      "type": "VEC2"
    },
    {
      "bufferView": 0,
      "byteOffset": 19315212,
      "componentType": 5125,
      "count": 333450,
      "type": "SCALAR"
    },
    {
      "bufferView": 2,
      "byteOffset": 23591520,
      "componentType": 5126,
      "count": 65532,
      "max": [
        0.285121351480484,
        0.3730657994747162,
        0.117437444627285
      ],
      "min": [
        -0.1367928385734558,
        -0.4078172743320465,
        -0.028423793613910675
      ],
      "type": "VEC3"
    },
    {
      "bufferView": 2,
      "byteOffset": 24377904,
      "componentType": 5126,
      "count": 65532,
      "max": [
        0.9999971985816956,
        0.9999999403953552,
        0.999906599521637
      ],
      "min": [
        -0.9999330043792725,
        -1.0,
        -0.9999998807907104
      ],
      "type": "VEC3"
    },
    {
      "bufferView": 3,
      "byteOffset": 15727680,
      "componentType": 5126,
      "count": 65532,
      "max": [
        0.9999692440032959,
        0.999997615814209,
        0.9999958872795105,
        1.0
      ],
      "min": [
        -0.9999869465827942,
        -0.999992847442627,
        -0.9999856948852539,
        -1.0
      ],
      "type": "VEC4"
    },
    {
      "bufferView": 1,
      "byteOffset": 31455360,
      "componentType": 5126,
      "count": 65532,
      "max": [
        0.9989309310913086,
        0.9985399842262268
      ],
      "min": [
        0.00012345967115834355,
        0.00020927190780639648
      ],
      "type": "VEC2"
    },
    {
      "bufferView": 1,
      "byteOffset": 31979616,
      "componentType": 5126,
      "count": 65532,
      "max": [
        0.9989309310913086,
        0.9985399842262268
      ],
      "min": [
        0.00012345967115834355,
        0.00020927190780639648
      ],
      "type": "VEC2"
    },
    {
      "bufferView": 1,
      "byteOffset": 32503872,
      "componentType": 5126,
      "count": 65532,
      "max": [
        0.9989309310913086,
        0.9985399842262268
      ],
      "min": [
        0.00012345967115834355,
        0.00020927190780639648
      ],
      "type": "VEC2"
    },
    {
      "bufferView": 1,
      "byteOffset": 33028128,
      "componentType": 5126,
      "count": 65532,
      "max": [
        0.9989309310913086,
        0.9985399842262268
      ],
      "min": [
        0.00012345967115834355,
        0.00020927190780639648
      ],
      "type": "VEC2"
    },
    {
      "bufferView": 0,
      "byteOffset": 20649012,
      "componentType": 5125,
      "count": 346410,
      "type": "SCALAR"
    },
    {
      "bufferView": 2,
      "byteOffset": 25164288,
      "componentType": 5126,
      "count": 61822,
      "max": [
        0.2878895401954651,
        0.4000551998615265,
        0.057907626032829285
      ],
      "min": [
        -0.14631874859333038,
        -0.4079422056674957,
        -0.042113594710826874
      ],
      "type": "VEC3"
    },
    {
      "bufferView": 2,
      "byteOffset": 25906152,
      "componentType": 5126,
      "count": 61822,
      "max": [
        0.9999961853027344,
        0.9999998211860657,
        0.9998792409896851
      ],
      "min": [
        -0.999992847442627,
        -1.0,
        -0.9999997615814209
      ],
      "type": "VEC3"
    },
    {
      "bufferView": 3,
      "byteOffset": 16776192,
      "componentType": 5126,
      "count": 61822,
      "max": [
        0.9999301433563232,
        0.9999991059303284,
        0.9999967217445374,
        1.0
      ],
      "min": [
        -0.9999927878379822,
        -0.9999960064888,
        -0.9999202489852905,
        -1.0
      ],
      "type": "VEC4"
    },
    {
      "bufferView": 1,
      "byteOffset": 33552384,
      "componentType": 5126,
      "count": 61822,
      "max": [
        0.9991034269332886,
        0.99753737449646
      ],
      "min": [
        0.0011623877799138427,
        0.0003700852394104004
      ],
      "type": "VEC2"
    },
    {
      "bufferView": 1,
      "byteOffset": 34046960,
      "componentType": 5126,
      "count": 61822,
      "max": [
        0.9991034269332886,
        0.99753737449646
      ],
      "min": [
        0.0011623877799138427,
        0.0003700852394104004
      ],
      "type": "VEC2"
    },
    {
      "bufferView": 1,
      "byteOffset": 34541536,
      "componentType": 5126,
      "count": 61822,
      "max": [
        0.9991034269332886,
        0.99753737449646
      ],
      "min": [
        0.0011623877799138427,
        0.0003700852394104004
      ],
      "type": "VEC2"
    },
    {
      "bufferView": 1,
      "byteOffset": 35036112,
      "componentType": 5126,
      "count": 61822,
      "max": [
        0.9991034269332886,
        0.99753737449646
      ],
      "min": [
        0.0011623877799138427,
        0.0003700852394104004
      ],
      "type": "VEC2"
    },
    {
      "bufferView": 0,
      "byteOffset": 22034652,
      "componentType": 5125,
      "count": 307293,
      "type": "SCALAR"
    }
  ],
  "asset": {
    "extras": {
      "author": "-X-ScornGames (https://sketchfab.com/XX-XX)",
      "license": "CC-BY-4.0 (http://creativecommons.org/licenses/by/4.0/)",
      "source": "https://sketchfab.com/3d-models/ancient-ruin-e-87b88c79dcd1465f8f9b53be506b10a8",
      "title": "♠️[-⛒-].Ancient-Ruin.{-.E.-}♠️"
    },
    "generator": "Sketchfab-0.8.0",
    "version": "2.0"
  },
  "bufferViews": [
    {
      "buffer": 0,
      "byteLength": 23263824,
      "name": "floatBufferViews",
      "target": 34963
    },
    {
      "buffer": 0,
      "byteLength": 35530688,
      "byteOffset": 23263824,
      "byteStride": 8,
      "name": "floatBufferViews",
      "target": 34962
    },
    {
      "buffer": 0,
      "byteLength": 26648016,
      "byteOffset": 58794512,
      "byteStride": 12,
      "name": "floatBufferViews",
      "target": 34962
    },
    {
      "buffer": 0,
      "byteLength": 17765344,
      "byteOffset": 85442528,
      "byteStride": 16,
      "name": "floatBufferViews",
      "target": 34962
    }
  ],
  "buffers": [
    {
      "byteLength": 103207872,
      "uri": "scene.bin"
    }
  ],
  "extensionsUsed": [
    "KHR_materials_emissive_strength"
  ],
  "images": [
    {
      "uri": "textures/tripo_material_5b683555-0f56-4a2e-9b7b-a94a2e23218c_baseColor.jpeg"
    },
    {
      "uri": "textures/tripo_material_5b683555-0f56-4a2e-9b7b-a94a2e23218c_metallicRoughness.png"
    },
    {
      "uri": "textures/tripo_material_5b683555-0f56-4a2e-9b7b-a94a2e23218c_normal.png"
    }
  ],
  "materials": [
    {
      "emissiveFactor": [
        1.0,
        1.0,
        1.0
      ],
      "emissiveTexture": {
        "index": 0
      },
      "extensions": {
        "KHR_materials_emissive_strength": {
          "emissiveStrength": 1.5038122294400669
        }
      },
      "name": "tripo_material_5b683555-0f56-4a2e-9b7b-a94a2e23218c",
      "normalTexture": {
        "index": 2,
        "texCoord": 2
      },
      "pbrMetallicRoughness": {
        "baseColorTexture": {
          "index": 0
        },
        "metallicRoughnessTexture": {
          "index": 1,
          "texCoord": 1
        },
        "roughnessFactor": 0.3639404001920221
      }
    }
  ],
  "meshes": [
    {
      "name": "Object_0",
      "primitives": [
        {
          "attributes": {
            "NORMAL": 1,
            "POSITION": 0,
            "TANGENT": 2,
            "TEXCOORD_0": 3,
            "TEXCOORD_1": 4,
            "TEXCOORD_2": 5,
            "TEXCOORD_3": 6
          },
          "indices": 7,
          "material": 0,
          "mode": 4
        }
      ]
    },
    {
      "name": "Object_1",
      "primitives": [
        {
          "attributes": {
            "NORMAL": 9,
            "POSITION": 8,
            "TANGENT": 10,
            "TEXCOORD_0": 11,
            "TEXCOORD_1": 12,
            "TEXCOORD_2": 13,
            "TEXCOORD_3": 14
          },
          "indices": 15,
          "material": 0,
          "mode": 4
        }
      ]
    },
    {
      "name": "Object_2",
      "primitives": [
        {
          "attributes": {
            "NORMAL": 17,
            "POSITION": 16,
            "TANGENT": 18,
            "TEXCOORD_0": 19,
            "TEXCOORD_1": 20,
            "TEXCOORD_2": 21,
            "TEXCOORD_3": 22
          },
          "indices": 23,
          "material": 0,
          "mode": 4
        }
      ]
    },
    {
      "name": "Object_3",
      "primitives": [
        {
          "attributes": {
            "NORMAL": 25,
            "POSITION": 24,
            "TANGENT": 26,
            "TEXCOORD_0": 27,
            "TEXCOORD_1": 28,
            "TEXCOORD_2": 29,
            "TEXCOORD_3": 30
          },
          "indices": 31,
          "material": 0,
          "mode": 4
        }
      ]
    },
    {
      "name": "Object_4",
      "primitives": [
        {
          "attributes": {
            "NORMAL": 33,
            "POSITION": 32,
            "TANGENT": 34,
            "TEXCOORD_0": 35,
            "TEXCOORD_1": 36,
            "TEXCOORD_2": 37,
            "TEXCOORD_3": 38
          },
          "indices": 39,
          "material": 0,
          "mode": 4
        }
      ]
    },
    {
      "name": "Object_5",
      "primitives": [
        {
          "attributes": {
            "NORMAL": 41,
            "POSITION": 40,
            "TANGENT": 42,
            "TEXCOORD_0": 43,
            "TEXCOORD_1": 44,
            "TEXCOORD_2": 45,
            "TEXCOORD_3": 46
          },
          "indices": 47,
          "material": 0,
          "mode": 4
        }
      ]
    },
    {
      "name": "Object_6",
      "primitives": [
        {
          "attributes": {
            "NORMAL": 49,
            "POSITION": 48,
            "TANGENT": 50,
            "TEXCOORD_0": 51,
            "TEXCOORD_1": 52,
            "TEXCOORD_2": 53,
            "TEXCOORD_3": 54
          },
          "indices": 55,
          "material": 0,
          "mode": 4
        }
      ]
    },
    {
      "name": "Object_7",
      "primitives": [
        {
          "attributes": {
            "NORMAL": 57,
            "POSITION": 56,
            "TANGENT": 58,
            "TEXCOORD_0": 59,
            "TEXCOORD_1": 60,
            "TEXCOORD_2": 61,
            "TEXCOORD_3": 62
          },
          "indices": 63,
          "material": 0,
          "mode": 4
        }
      ]
    },
    {
      "name": "Object_8",
      "primitives": [
        {
          "attributes": {
            "NORMAL": 65,
            "POSITION": 64,
            "TANGENT": 66,
            "TEXCOORD_0": 67,
            "TEXCOORD_1": 68,
            "TEXCOORD_2": 69,
            "TEXCOORD_3": 70
          },
          "indices": 71,
          "material": 0,
          "mode": 4
        }
      ]
    },
    {
      "name": "Object_9",
      "primitives": [
        {
          "attributes": {
            "NORMAL": 73,
            "POSITION": 72,
            "TANGENT": 74,
            "TEXCOORD_0": 75,
            "TEXCOORD_1": 76,
            "TEXCOORD_2": 77,
            "TEXCOORD_3": 78
          },
          "indices": 79,
          "material": 0,
          "mode": 4
        }
      ]
    },
    {
      "name": "Object_10",
      "primitives": [
        {
          "attributes": {
            "NORMAL": 81,
            "POSITION": 80,
            "TANGENT": 82,
            "TEXCOORD_0": 83,
            "TEXCOORD_1": 84,
            "TEXCOORD_2": 85,
            "TEXCOORD_3": 86
          },
          "indices": 87,
          "material": 0,
          "mode": 4
        }
      ]
    },
    {
      "name": "Object_11",
      "primitives": [
        {
          "attributes": {
            "NORMAL": 89,
            "POSITION": 88,
            "TANGENT": 90,
            "TEXCOORD_0": 91,
            "TEXCOORD_1": 92,
            "TEXCOORD_2": 93,
            "TEXCOORD_3": 94
          },
          "indices": 95,
          "material": 0,
          "mode": 4
        }
      ]
    },
    {
      "name": "Object_12",
      "primitives": [
        {
          "attributes": {
            "NORMAL": 97,
            "POSITION": 96,
            "TANGENT": 98,
            "TEXCOORD_0": 99,
            "TEXCOORD_1": 100,
            "TEXCOORD_2": 101,
            "TEXCOORD_3": 102
          },
          "indices": 103,
          "material": 0,
          "mode": 4
        }
      ]
    },
    {
      "name": "Object_13",
      "primitives": [
        {
          "attributes": {
            "NORMAL": 105,
            "POSITION": 104,
            "TANGENT": 106,
            "TEXCOORD_0": 107,
            "TEXCOORD_1": 108,
            "TEXCOORD_2": 109,
            "TEXCOORD_3": 110
          },
          "indices": 111,
          "material": 0,
          "mode": 4
        }
      ]
    },
    {
      "name": "Object_14",
      "primitives": [
        {
          "attributes": {
            "NORMAL": 113,
            "POSITION": 112,
            "TANGENT": 114,
            "TEXCOORD_0": 115,
            "TEXCOORD_1": 116,
            "TEXCOORD_2": 117,
            "TEXCOORD_3": 118
          },
          "indices": 119,
          "material": 0,
          "mode": 4
        }
      ]
    },
    {
      "name": "Object_15",
      "primitives": [
        {
          "attributes": {
            "NORMAL": 121,
            "POSITION": 120,
            "TANGENT": 122,
            "TEXCOORD_0": 123,
            "TEXCOORD_1": 124,
            "TEXCOORD_2": 125,
            "TEXCOORD_3": 126
          },
          "indices": 127,
          "material": 0,
          "mode": 4
        }
      ]
    },
    {
      "name": "Object_16",
      "primitives": [
        {
          "attributes": {
            "NORMAL": 129,
            "POSITION": 128,
            "TANGENT": 130,
            "TEXCOORD_0": 131,
            "TEXCOORD_1": 132,
            "TEXCOORD_2": 133,
            "TEXCOORD_3": 134
          },
          "indices": 135,
          "material": 0,
          "mode": 4
        }
      ]
    }
  ],
  "nodes": [
    {
      "children": [
        1
      ],
      "matrix": [
        1.0,
        0.0,
        0.0,
        0.0,
        0.0,
        2.220446049250313e-16,
        -1.0,
        0.0,
        0.0,
        1.0,
        2.220446049250313e-16,
        0.0,
        0.0,
        0.0,
        0.0,
        1.0
      ],
      "name": "Sketchfab_model"
    },
    {
      "children": [
        2
      ],
      "name": "root"
    },
    {
      "children": [
        3
      ],
      "matrix": [
        1.0,
        0.0,
        0.0,
        0.0,
        0.0,
        2.220446049250313e-16,
        1.0,
        0.0,
        0.0,
        -1.0,
        2.220446049250313e-16,
        0.0,
        0.0,
        0.0,
        0.0,
        1.0
      ],
      "name": "GLTF_SceneRootNode"
    },
    {
      "children": [
        4,
        5,
        6,
        7,
        8,
        9,
        10,
        11,
        12,
        13,
        14,
        15,
        16,
        17,
        18,
        19,
        20
      ],
      "name": "tripo_node_5b683555-0f56-4a2e-9b7b-a94a2e23218c_0"
    },
    {
      "mesh": 0,
      "name": "Object_4"
    },
    {
      "mesh": 1,
      "name": "Object_5"
    },
    {
      "mesh": 2,
      "name": "Object_6"
    },
    {
      "mesh": 3,
      "name": "Object_7"
    },
    {
      "mesh": 4,
      "name": "Object_8"
    },
    {
      "mesh": 5,
      "name": "Object_9"
    },
    {
      "mesh": 6,
      "name": "Object_10"
    },
    {
      "mesh": 7,
      "name": "Object_11"
    },
    {
      "mesh": 8,
      "name": "Object_12"
    },
    {
      "mesh": 9,
      "name": "Object_13"
    },
    {
      "mesh": 10,
      "name": "Object_14"
    },
    {
      "mesh": 11,
      "name": "Object_15"
    },
    {
      "mesh": 12,
      "name": "Object_16"
    },
    {
      "mesh": 13,
      "name": "Object_17"
    },
    {
      "mesh": 14,
      "name": "Object_18"
    },
    {
      "mesh": 15,
      "name": "Object_19"
    },
    {
      "mesh": 16,
      "name": "Object_20"
    }
  ],
  "samplers": [
    {
      "magFilter": 9729,
      "minFilter": 9987,
      "wrapS": 10497,
      "wrapT": 10497
    }
  ],
  "scene": 0,
  "scenes": [
    {
      "name": "Sketchfab_Scene",
      "nodes": [
        0
      ]
    }
  ],
  "textures": [
    {
      "sampler": 0,
      "source": 0
    },
    {
      "sampler": 0,
      "source": 1
    },
    {
      "sampler": 0,
      "source": 2
    }
  ]
}
